<svg xmlns="http://www.w3.org/2000/svg" xmlns:xlink="http://www.w3.org/1999/xlink" width="648px" height="382px" viewBox="0 0 483 285" version="1.1">
<g id="surface1">

<path style="fill-rule: nonzero; fill: rgb(108, 52, 148); fill-opacity: 1; visibility: visible; opacity: 1; stroke: rgb(108, 52, 148);" d="M 148.269531 68.25 C 149.738281 71.195312 149.277344 74.785156 149.019531 78 C 147.871094 81.121094 147.289062 82.15625 144.527344 84 C 142.71875 84.179688 142.71875 84.179688 140.558594 84.171875 C 139.738281 84.171875 138.917969 84.171875 138.070312 84.167969 C 136.777344 84.160156 136.777344 84.160156 135.460938 84.148438 C 134.273438 84.144531 134.273438 84.144531 133.058594 84.140625 C 130.09375 84.132812 127.128906 84.113281 124.167969 84.09375 C 114.226562 84.046875 114.226562 84.046875 104.089844 84 C 104.089844 103.058594 104.089844 122.113281 104.089844 141.75 C 99.144531 141.75 94.203125 141.75 89.113281 141.75 C 89.113281 122.941406 89.113281 104.128906 89.113281 84.75 C 67.890625 87.191406 67.890625 87.191406 51.875 99.8125 C 44.859375 110.375 43.921875 122.882812 45.96875 135.25 C 47.359375 140.796875 50.59375 146.011719 54.664062 150 C 56.242188 150.921875 56.242188 150.921875 57.660156 151.5 C 58.117188 154.628906 58.253906 157.191406 56.675781 160.007812 C 54.59375 162.578125 52.917969 164.042969 49.84375 165.328125 C 45.777344 164.828125 43.820312 162.785156 41.1875 159.75 C 33.261719 149.25 29.519531 137.105469 29.71875 124.03125 C 29.71875 123.242188 29.714844 122.449219 29.710938 121.632812 C 29.808594 107.445312 34.734375 95.441406 44.457031 85.0625 C 59.832031 70.917969 81.632812 68.964844 101.554688 68.761719 C 102.832031 68.746094 104.109375 68.730469 105.386719 68.714844 C 108.734375 68.675781 112.078125 68.636719 115.421875 68.601562 C 118.835938 68.5625 122.246094 68.519531 125.660156 68.480469 C 130.632812 68.421875 135.609375 68.363281 140.582031 68.308594 C 141.363281 68.296875 141.363281 68.296875 142.160156 68.289062 C 144.195312 68.265625 146.234375 68.25 148.269531 68.25 Z M 148.269531 68.25 " data-index="1"></path>
<path style="stroke: rgb(60, 31, 84); fill-rule: nonzero; fill: rgb(60, 31, 84); fill-opacity: 1; visibility: visible;" d="M 330.238281 99.75 C 329.710938 104.542969 328.847656 109.210938 327.882812 113.933594 C 327.644531 115.105469 327.644531 115.105469 327.402344 116.304688 C 326.734375 119.621094 326.058594 122.941406 325.382812 126.257812 C 323.46875 135.691406 321.632812 145.125 320.015625 154.613281 C 319.09375 160.019531 318.085938 165.394531 316.992188 170.765625 C 316.832031 171.558594 316.675781 172.347656 316.511719 173.164062 C 315.894531 176.210938 315.265625 179.234375 314.511719 182.25 C 310.558594 182.25 306.605469 182.25 302.53125 182.25 C 302.53125 180.023438 302.53125 177.796875 302.53125 175.5 C 301.535156 176.496094 301.535156 176.496094 300.519531 177.515625 C 295.238281 182.011719 288.21875 184.476562 281.289062 184.113281 C 276.832031 183.292969 272.746094 181.273438 269.628906 177.9375 C 264.632812 170.050781 264.703125 160.316406 266.632812 151.359375 C 269.796875 140.546875 275.359375 131.582031 285.308594 126 C 290.261719 123.289062 295.484375 123.117188 301.03125 123.75 C 304.898438 124.960938 307.640625 127.230469 310.765625 129.75 C 310.894531 129.0625 311.023438 128.371094 311.15625 127.664062 C 311.636719 125.101562 312.117188 122.542969 312.605469 119.980469 C 312.8125 118.875 313.023438 117.765625 313.226562 116.660156 C 313.523438 115.066406 313.828125 113.472656 314.132812 111.878906 C 314.402344 110.441406 314.402344 110.441406 314.679688 108.976562 C 315.171875 106.871094 315.554688 105.277344 316.757812 103.5 C 318.644531 102.667969 320.371094 102.023438 322.328125 101.4375 C 322.835938 101.273438 323.347656 101.105469 323.875 100.9375 C 326.070312 100.242188 327.917969 99.75 330.238281 99.75 Z M 330.238281 99.75 " data-index="2"></path>
<path style="stroke: rgb(60, 31, 84); fill-rule: nonzero; fill: rgb(60, 31, 84); fill-opacity: 1; visibility: visible;" d="M 354.199219 103.5 C 359.882812 103.5 365.566406 103.5 371.421875 103.5 C 373.828125 108.3125 375.957031 113.0625 377.976562 118.03125 C 378.285156 118.777344 378.589844 119.527344 378.910156 120.296875 C 379.199219 121.007812 379.488281 121.722656 379.789062 122.453125 C 380.050781 123.101562 380.316406 123.746094 380.585938 124.410156 C 381.15625 126 381.15625 126 381.15625 127.5 C 384.082031 125.335938 386.152344 123.058594 388.320312 120.140625 C 388.640625 119.726562 388.964844 119.308594 389.300781 118.882812 C 391.121094 116.53125 392.769531 114.164062 394.296875 111.609375 C 399.089844 104.058594 399.089844 104.058594 403.386719 103.011719 C 408.234375 102.53125 413.027344 102.871094 417.851562 103.5 C 416.550781 106.269531 414.933594 108.191406 412.84375 110.4375 C 412.160156 111.179688 411.476562 111.917969 410.792969 112.660156 C 410.15625 113.351562 409.519531 114.039062 408.863281 114.75 C 406.382812 117.527344 403.957031 120.355469 401.539062 123.191406 C 400.769531 124.097656 399.996094 125 399.222656 125.90625 C 398.839844 126.355469 398.457031 126.808594 398.058594 127.269531 C 394.734375 131.15625 391.339844 134.96875 387.898438 138.75 C 388.832031 141.652344 389.863281 144.460938 391.078125 147.261719 C 391.40625 148.023438 391.738281 148.785156 392.078125 149.574219 C 392.429688 150.382812 392.78125 151.195312 393.144531 152.03125 C 393.507812 152.871094 393.871094 153.710938 394.246094 154.578125 C 395.40625 157.257812 396.566406 159.933594 397.726562 162.609375 C 398.890625 165.300781 400.058594 167.988281 401.222656 170.679688 C 401.945312 172.355469 402.671875 174.027344 403.394531 175.699219 C 403.722656 176.449219 404.046875 177.199219 404.382812 177.976562 C 404.667969 178.640625 404.957031 179.304688 405.253906 179.988281 C 405.871094 181.5 405.871094 181.5 405.871094 182.25 C 400.1875 182.25 394.503906 182.25 388.648438 182.25 C 387.960938 180.453125 387.277344 178.65625 386.570312 176.804688 C 385.902344 175.054688 385.234375 173.308594 384.570312 171.5625 C 384.109375 170.351562 383.644531 169.140625 383.183594 167.925781 C 382.519531 166.183594 381.851562 164.4375 381.1875 162.695312 C 380.980469 162.15625 380.777344 161.617188 380.566406 161.0625 C 379.535156 158.367188 378.492188 155.675781 377.414062 153 C 374.992188 155.308594 372.976562 157.785156 370.957031 160.453125 C 370.292969 161.324219 369.632812 162.195312 368.96875 163.0625 C 368.632812 163.507812 368.296875 163.953125 367.949219 164.410156 C 366.957031 165.714844 365.960938 167.019531 364.960938 168.320312 C 364.644531 168.734375 364.328125 169.148438 364 169.574219 C 363.363281 170.398438 362.722656 171.21875 362.074219 172.03125 C 360.644531 173.835938 359.417969 175.546875 358.386719 177.613281 C 357.230469 179.769531 356.175781 180.816406 354.199219 182.25 C 352.292969 182.628906 352.292969 182.628906 350.214844 182.660156 C 349.09375 182.679688 349.09375 182.679688 347.957031 182.703125 C 344.535156 182.65625 341.132812 182.503906 337.726562 182.25 C 339.414062 179.21875 341.449219 176.652344 343.714844 174.046875 C 346.652344 170.628906 349.484375 167.160156 352.234375 163.59375 C 355.207031 159.75 358.304688 156.046875 361.5 152.390625 C 362.316406 151.449219 363.132812 150.507812 363.949219 149.566406 C 365.292969 148.015625 366.648438 146.480469 368.015625 144.949219 C 368.507812 144.371094 369 143.796875 369.503906 143.203125 C 369.921875 142.730469 370.335938 142.257812 370.765625 141.769531 C 371.785156 139.410156 370.851562 138.132812 369.925781 135.75 C 368.785156 133.285156 367.566406 130.867188 366.339844 128.445312 C 365.992188 127.753906 365.644531 127.0625 365.289062 126.351562 C 364.183594 124.15625 363.078125 121.960938 361.96875 119.765625 C 360.855469 117.558594 359.746094 115.347656 358.632812 113.140625 C 357.945312 111.765625 357.253906 110.394531 356.558594 109.023438 C 356.25 108.40625 355.9375 107.789062 355.621094 107.15625 C 355.207031 106.339844 355.207031 106.339844 354.785156 105.503906 C 354.199219 104.25 354.199219 104.25 354.199219 103.5 Z M 354.199219 103.5 " data-index="3"></path>
<path style="stroke: rgb(60, 31, 84); fill-rule: nonzero; fill: rgb(60, 31, 84); fill-opacity: 1; visibility: visible;" d="M 192.429688 126.941406 C 196.554688 130.152344 198.929688 134.378906 199.941406 139.5 C 200.367188 145.710938 199.65625 151.597656 197.691406 157.5 C 185.335938 157.5 172.980469 157.5 160.25 157.5 C 161.160156 165.691406 161.160156 165.691406 163.246094 169.5 C 167.183594 172.128906 172.144531 171.386719 176.726562 171 C 180.910156 169.8125 184.023438 167.121094 187.210938 164.25 C 189.679688 165.984375 192.152344 167.714844 194.699219 169.5 C 191.539062 175.828125 186.304688 179.84375 179.722656 182.25 C 171.648438 184.402344 163.066406 184.847656 155.570312 180.65625 C 151.078125 177.617188 148.949219 173.125 147.519531 168 C 146.324219 156.621094 148.988281 145.8125 155.757812 136.5 C 156.132812 135.972656 156.507812 135.441406 156.894531 134.898438 C 165.003906 124.546875 180.796875 119.523438 192.429688 126.941406 Z M 192.429688 126.941406 " data-index="4"></path>
<path style="stroke: rgb(60, 31, 84); fill-rule: nonzero; fill: rgb(60, 31, 84); fill-opacity: 1; visibility: visible;" d="M 251.609375 126.75 C 253.460938 128.3125 254.832031 129.941406 256.101562 132 C 256.507812 132.628906 256.910156 133.257812 257.328125 133.90625 C 258.761719 137.550781 258.648438 140.867188 258.582031 144.75 C 258.585938 145.480469 258.585938 146.207031 258.589844 146.960938 C 258.558594 151.027344 258.1875 153.484375 256.851562 157.5 C 244.496094 157.5 232.140625 157.5 219.410156 157.5 C 219.695312 164.964844 219.695312 164.964844 223.152344 170.25 C 225.425781 171.386719 227.554688 171.15625 230.082031 171.1875 C 231.546875 171.214844 231.546875 171.214844 233.039062 171.246094 C 237.371094 170.871094 240.28125 168.980469 243.652344 166.359375 C 244.546875 165.664062 245.445312 164.96875 246.367188 164.25 C 248.839844 165.984375 251.308594 167.714844 253.855469 169.5 C 250.691406 175.835938 245.460938 179.835938 238.878906 182.25 C 231.3125 184.347656 222.867188 185.097656 215.664062 181.5 C 210.378906 178.230469 208.578125 173.707031 206.679688 168 C 205.757812 156.253906 207.941406 146.25 214.917969 136.5 C 215.289062 135.96875 215.664062 135.441406 216.050781 134.894531 C 224.433594 124.21875 239.507812 120.0625 251.609375 126.75 Z M 251.609375 126.75 " data-index="5"></path>
<path style="fill-rule: nonzero; fill: rgb(108, 52, 148); fill-opacity: 1; visibility: visible; opacity: 1; stroke: rgb(108, 52, 148);" d="M 89.113281 163.5 C 94.054688 163.5 98.996094 163.5 104.089844 163.5 C 104.15625 168.421875 104.21875 173.339844 104.253906 178.261719 C 104.269531 179.933594 104.289062 181.601562 104.3125 183.269531 C 104.648438 205.28125 104.648438 205.28125 100.113281 212.253906 C 98.214844 214.140625 96.191406 214.734375 93.605469 214.921875 C 89.191406 214.601562 86.5 212.039062 83.589844 208.921875 C 82.082031 207.097656 81.648438 206.457031 81.34375 204.046875 C 81.480469 203.28125 81.480469 203.28125 81.625 202.5 C 82.6875 202.570312 82.6875 202.570312 83.777344 202.640625 C 84.933594 202.570312 84.933594 202.570312 86.117188 202.5 C 88.894531 198.324219 88.511719 193.785156 88.601562 188.914062 C 88.617188 188.1875 88.628906 187.460938 88.648438 186.710938 C 88.695312 184.394531 88.738281 182.082031 88.785156 179.765625 C 88.816406 178.191406 88.847656 176.621094 88.882812 175.046875 C 88.960938 171.199219 89.035156 167.347656 89.113281 163.5 Z M 89.113281 163.5 " data-index="6"></path>
<path style="stroke: rgb(252, 252, 252); fill-rule: nonzero; fill: rgb(252, 252, 252); fill-opacity: 1; visibility: visible;" d="M 301.03125 136.5 C 304.367188 138.082031 306.394531 139.796875 307.773438 143.25 C 308.570312 150.105469 307.203125 158.941406 303.453125 164.828125 C 299.304688 169.238281 294.875 171.019531 288.910156 171.375 C 286.078125 171.289062 285.429688 171.09375 283.058594 169.3125 C 279.542969 164.464844 279.628906 160.40625 280.066406 154.5 C 281.199219 148.164062 283.890625 142.675781 288.722656 138.375 C 292.550781 135.710938 296.546875 135.761719 301.03125 136.5 Z M 301.03125 136.5 " data-index="7"></path>
<path style="fill-rule: nonzero; fill: rgb(108, 52, 148); fill-opacity: 1; visibility: visible; opacity: 1; stroke: rgb(108, 52, 148);" d="M 131.046875 146.25 C 131.390625 151.085938 130.605469 154.128906 128.050781 158.25 C 126.683594 159.621094 124.511719 159.132812 122.671875 159.15625 C 121.945312 159.167969 121.945312 159.167969 121.207031 159.179688 C 119.597656 159.203125 117.992188 159.21875 116.386719 159.230469 C 115.835938 159.238281 115.289062 159.242188 114.722656 159.246094 C 111.820312 159.269531 108.917969 159.289062 106.015625 159.304688 C 103.613281 159.316406 101.210938 159.34375 98.808594 159.378906 C 95.90625 159.425781 93.007812 159.449219 90.109375 159.457031 C 89.003906 159.460938 87.898438 159.476562 86.792969 159.5 C 78.144531 159.660156 78.144531 159.660156 75.625 158.019531 C 72.820312 154.734375 72.414062 151.953125 72.636719 147.75 C 74.765625 145.617188 76.222656 146.039062 79.207031 146 C 79.726562 145.988281 80.25 145.980469 80.785156 145.972656 C 82.515625 145.945312 84.242188 145.929688 85.96875 145.914062 C 87.167969 145.898438 88.367188 145.878906 89.570312 145.863281 C 92.085938 145.828125 94.601562 145.800781 97.117188 145.773438 C 100.34375 145.742188 103.570312 145.699219 106.792969 145.652344 C 109.273438 145.621094 111.75 145.589844 114.230469 145.558594 C 115.417969 145.546875 116.605469 145.53125 117.796875 145.515625 C 119.457031 145.492188 121.121094 145.476562 122.785156 145.460938 C 123.730469 145.449219 124.679688 145.4375 125.652344 145.429688 C 127.621094 145.488281 129.183594 145.65625 131.046875 146.25 Z M 131.046875 146.25 " data-index="8"></path>
<path style="stroke: rgb(252, 252, 252); fill-rule: nonzero; fill: rgb(252, 252, 252); fill-opacity: 1; visibility: visible;" d="M 241.78125 136.3125 C 243.371094 137.25 243.371094 137.25 245.617188 140.25 C 245.617188 142.726562 245.617188 145.199219 245.617188 147.75 C 237.957031 147.75 230.296875 147.75 222.40625 147.75 C 224.683594 142.425781 226.210938 139.046875 231.394531 136.292969 C 234.84375 135.042969 238.292969 135.402344 241.78125 136.3125 Z M 241.78125 136.3125 " data-index="9"></path>
<path style="stroke: rgb(252, 252, 252); fill-rule: nonzero; fill: rgb(252, 252, 252); fill-opacity: 1; visibility: visible;" d="M 181.21875 135.75 C 183.980469 136.960938 184.777344 137.722656 186.460938 140.25 C 186.460938 142.726562 186.460938 145.199219 186.460938 147.75 C 178.800781 147.75 171.140625 147.75 163.246094 147.75 C 167.484375 139.261719 171.433594 134.003906 181.21875 135.75 Z M 181.21875 135.75 " data-index="10"></path>
<path style="stroke: rgb(244, 244, 244); fill-rule: nonzero; fill: rgb(244, 244, 244); fill-opacity: 1; visibility: visible;" d="M 71.140625 276.75 C 71.886719 277.5 71.886719 277.5 72.167969 279.609375 C 71.886719 282 71.886719 282 70.410156 283.636719 C 67.355469 285.472656 65.027344 285.339844 61.546875 285.1875 C 60.660156 285.167969 60.660156 285.167969 59.757812 285.148438 C 58.308594 285.113281 56.859375 285.058594 55.414062 285 C 57.769531 282.570312 60.132812 280.351562 62.855469 278.34375 C 63.464844 277.882812 64.074219 277.417969 64.703125 276.945312 C 67.175781 275.742188 68.527344 276.027344 71.140625 276.75 Z M 71.140625 276.75 " data-index="11"></path>
</g>
</svg>