<?xml version="1.0" encoding="UTF-8"?>
<svg version="1.1" xmlns="http://www.w3.org/2000/svg" width="48" height="52">
<path d="M0 0 C15.84 0 31.68 0 48 0 C48 17.16 48 34.32 48 52 C32.16 52 16.32 52 0 52 C0 34.84 0 17.68 0 0 Z " fill="#030D1D" transform="translate(0,0)"/>
<path d="M0 0 C2.3125 1.625 2.3125 1.625 4 4 C4.390625 6.84375 4.390625 6.84375 4 10 C2.05859375 12.4921875 2.05859375 12.4921875 -0.5625 14.875 C-3.80251976 17.9139466 -6.88980408 20.91240192 -9.75 24.3125 C-14.15575969 29.4198795 -18.20693215 33.41013306 -25 35 C-27.8125 35.1875 -27.8125 35.1875 -30 35 C-30.33 34.67 -30.66 34.34 -31 34 C-30.48066869 26.21003032 -28.25407319 21.99338757 -22.65625 16.42578125 C-21.82222656 15.59369141 -20.98820312 14.76160156 -20.12890625 13.90429688 C-18.82759766 12.62135742 -18.82759766 12.62135742 -17.5 11.3125 C-16.63246094 10.44560547 -15.76492187 9.57871094 -14.87109375 8.68554688 C-5.338063 -0.78117995 -5.338063 -0.78117995 0 0 Z " fill="#22A0D7" transform="translate(43,4)"/>
<path d="M0 0 C0.84433594 0.01289062 1.68867188 0.02578125 2.55859375 0.0390625 C3.86763672 0.08933594 3.86763672 0.08933594 5.203125 0.140625 C6.09128906 0.15867187 6.97945312 0.17671875 7.89453125 0.1953125 C10.08183348 0.24235126 12.26692316 0.30805491 14.453125 0.390625 C15.015625 2.328125 15.015625 2.328125 15.453125 4.390625 C13.93891499 5.90483501 12.52839732 5.60372356 10.41796875 5.70703125 C9.32536743 5.76419312 9.32536743 5.76419312 8.21069336 5.82250977 C7.2800708 5.86561279 6.34944824 5.90871582 5.390625 5.953125 C2.44125 6.0975 -0.508125 6.241875 -3.546875 6.390625 C-3.876875 15.960625 -4.206875 25.530625 -4.546875 35.390625 C-8.85266321 31.08483679 -9.05482031 30.83748867 -9.078125 25.234375 C-9.08328125 24.04714844 -9.0884375 22.85992188 -9.09375 21.63671875 C-9.07828125 20.40050781 -9.0628125 19.16429687 -9.046875 17.890625 C-9.06234375 16.65441406 -9.0778125 15.41820312 -9.09375 14.14453125 C-9.08859375 12.95730469 -9.0834375 11.77007812 -9.078125 10.546875 C-9.07361328 9.46212891 -9.06910156 8.37738281 -9.06445312 7.25976562 C-8.11790395 2.01266848 -5.21717276 -0.14100467 0 0 Z " fill="#22A1D8" transform="translate(9.546875,5.609375)"/>
<path d="M0 0 C1.32 0.33 2.64 0.66 4 1 C4.11644156 4.08301416 4.18732432 7.16546123 4.25 10.25 C4.30027344 11.55904297 4.30027344 11.55904297 4.3515625 12.89453125 C4.36445312 13.73886719 4.37734375 14.58320312 4.390625 15.453125 C4.41157227 16.22817383 4.43251953 17.00322266 4.45410156 17.80175781 C3.79882756 20.97384767 2.58853928 22.09293548 0 24 C-2.9609375 24.51757812 -2.9609375 24.51757812 -6.375 24.53125 C-7.60734375 24.53640625 -8.8396875 24.5415625 -10.109375 24.546875 C-11.39328125 24.53140625 -12.6771875 24.5159375 -14 24.5 C-15.92585938 24.52320313 -15.92585938 24.52320313 -17.890625 24.546875 C-19.12296875 24.54171875 -20.3553125 24.5365625 -21.625 24.53125 C-23.31496094 24.52448242 -23.31496094 24.52448242 -25.0390625 24.51757812 C-28 24 -28 24 -32 20 C-16.655 19.505 -16.655 19.505 -1 19 C-0.67 12.73 -0.34 6.46 0 0 Z " fill="#24A7DF" transform="translate(41,26)"/>
<path d="M0 0 C1.32 0.66 2.64 1.32 4 2 C1.59118169 7.59988585 -3.07096793 11.43966082 -7.3125 15.6875 C-8.16779297 16.56728516 -9.02308594 17.44707031 -9.90429688 18.35351562 C-10.73638672 19.18947266 -11.56847656 20.02542969 -12.42578125 20.88671875 C-13.56140503 22.03466919 -13.56140503 22.03466919 -14.7199707 23.20581055 C-17.21119135 25.16618966 -18.88249482 25.65796475 -22 26 C-20.71512569 21.16174123 -19.00014603 18.51912967 -15.4296875 15.0390625 C-14.53378906 14.15605469 -13.63789063 13.27304687 -12.71484375 12.36328125 C-11.77769531 11.45964844 -10.84054688 10.55601563 -9.875 9.625 C-8.91965427 8.68973953 -7.96521734 7.7535498 -7.01171875 6.81640625 C-4.68324979 4.53497707 -2.34595693 2.26341988 0 0 Z " fill="#031122" transform="translate(39,8)"/>
</svg>
